<svg width="16" height="16" viewBox="0 0 16 16" fill="none" xmlns="http://www.w3.org/2000/svg">
<path d="M15.898 8.24203L9.63723 14.3997C9.57196 14.4639 9.48344 14.5 9.39114 14.5C9.29884 14.5 9.21033 14.4639 9.14506 14.3997C9.0798 14.3356 9.04313 14.2485 9.04313 14.1577C9.04313 14.0669 9.0798 13.9799 9.14506 13.9157L14.8119 8.34209H0.34782C0.255572 8.34209 0.167103 8.30605 0.101874 8.2419C0.0366453 8.17774 0 8.09073 0 8C0 7.90927 0.0366453 7.82226 0.101874 7.7581C0.167103 7.69395 0.255572 7.6579 0.34782 7.6579H14.8119L9.14506 2.08432C9.0798 2.02013 9.04313 1.93307 9.04313 1.84229C9.04313 1.75151 9.0798 1.66444 9.14506 1.60025C9.21033 1.53606 9.29884 1.5 9.39114 1.5C9.48344 1.5 9.57196 1.53606 9.63723 1.60025L15.898 7.75797C15.9303 7.78974 15.956 7.82747 15.9735 7.869C15.991 7.91053 16 7.95504 16 8C16 8.04496 15.991 8.08947 15.9735 8.131C15.956 8.17253 15.9303 8.21026 15.898 8.24203Z" fill="white"/>
</svg>
