<svg width="24" height="24" viewBox="0 0 24 24" fill="none" xmlns="http://www.w3.org/2000/svg">
<mask id="mask0_9362_6756" style="mask-type:alpha" maskUnits="userSpaceOnUse" x="2" y="2" width="20" height="20">
<rect width="19.2" height="19.2" transform="matrix(-1 0 0 1 21.5996 2.3999)" fill="#666666"/>
</mask>
<g mask="url(#mask0_9362_6756)">
</g>
<path d="M4.10201 12.242L10.3628 18.3997C10.428 18.4639 10.5166 18.5 10.6089 18.5C10.7012 18.5 10.7897 18.4639 10.8549 18.3997C10.9202 18.3356 10.9569 18.2485 10.9569 18.1577C10.9569 18.0669 10.9202 17.9799 10.8549 17.9157L5.18808 12.3421H19.6522C19.7444 12.3421 19.8329 12.3061 19.8981 12.2419C19.9634 12.1777 20 12.0907 20 12C20 11.9093 19.9634 11.8223 19.8981 11.7581C19.8329 11.6939 19.7444 11.6579 19.6522 11.6579H5.18808L10.8549 6.08432C10.9202 6.02013 10.9569 5.93307 10.9569 5.84229C10.9569 5.75151 10.9202 5.66444 10.8549 5.60025C10.7897 5.53606 10.7012 5.5 10.6089 5.5C10.5166 5.5 10.428 5.53606 10.3628 5.60025L4.10201 11.758C4.06967 11.7897 4.04402 11.8275 4.02651 11.869C4.00901 11.9105 4 11.955 4 12C4 12.045 4.00901 12.0895 4.02651 12.131C4.04402 12.1725 4.06967 12.2103 4.10201 12.242Z" fill="white"/>
</svg>
