<svg width="13" height="12" viewBox="0 0 13 12" fill="none" xmlns="http://www.w3.org/2000/svg">
<rect width="13" height="12" fill="#E6EBF3"/>
<g id="2 - Reag">
<path d="M-967 -600C-967 -608.837 -959.837 -616 -951 -616H5477C5485.84 -616 5493 -608.837 5493 -600V6046C5493 6054.84 5485.84 6062 5477 6062H-951C-959.837 6062 -967 6054.84 -967 6046V-600Z" fill="#FFEAE5"/>
<path d="M-951 -615H5477V-617H-951V-615ZM5492 -600V6046H5494V-600H5492ZM5477 6061H-951V6063H5477V6061ZM-966 6046V-600H-968V6046H-966ZM-951 6061C-959.284 6061 -966 6054.28 -966 6046H-968C-968 6055.39 -960.389 6063 -951 6063V6061ZM5492 6046C5492 6054.28 5485.28 6061 5477 6061V6063C5486.39 6063 5494 6055.39 5494 6046H5492ZM5477 -615C5485.28 -615 5492 -608.284 5492 -600H5494C5494 -609.389 5486.39 -617 5477 -617V-615ZM-951 -617C-960.389 -617 -968 -609.389 -968 -600H-966C-966 -608.284 -959.284 -615 -951 -615V-617Z" fill="black" fill-opacity="0.1"/>
<g id="2 - Quem Somos">
<rect width="1920" height="3133.71" transform="translate(-867 -516)" fill="white"/>
<g id="Header / Component / Interno" clip-path="url(#clip0_319_913)">
<g id="breadcrumb">
<g id="Breadcrumb / Base / Path">
<g id="ph:arrow-right-light">
<path id="Vector" d="M10.8238 6.19875L7.44875 9.57375C7.39543 9.62343 7.32492 9.65048 7.25205 9.64919C7.17919 9.64791 7.10967 9.61839 7.05814 9.56686C7.00661 9.51533 6.9771 9.44581 6.97581 9.37295C6.97452 9.30009 7.00157 9.22957 7.05125 9.17625L9.94578 6.28125H2.375C2.30041 6.28125 2.22887 6.25162 2.17613 6.19888C2.12338 6.14613 2.09375 6.0746 2.09375 6C2.09375 5.92541 2.12338 5.85387 2.17613 5.80113C2.22887 5.74839 2.30041 5.71875 2.375 5.71875H9.94578L7.05125 2.82375C7.00157 2.77044 6.97452 2.69992 6.97581 2.62706C6.9771 2.55419 7.00661 2.48468 7.05814 2.43315C7.10967 2.38162 7.17919 2.3521 7.25205 2.35081C7.32492 2.34953 7.39543 2.37657 7.44875 2.42625L10.8238 5.80125C10.8764 5.85399 10.906 5.92547 10.906 6C10.906 6.07453 10.8764 6.14602 10.8238 6.19875Z" fill="#999999"/>
</g>
</g>
</g>
</g>
</g>
</g>
<defs>
<clipPath id="clip0_319_913">
<rect width="1920" height="550" fill="white" transform="translate(-867 -516)"/>
</clipPath>
</defs>
</svg>
