<svg width="7" height="5" viewBox="0 0 7 5" fill="none" xmlns="http://www.w3.org/2000/svg">
<path d="M6.33249 0.00446126L0.332491 0.00446073C0.271744 0.00465099 0.212199 0.0214056 0.160266 0.0529198C0.108333 0.0844344 0.0659775 0.129516 0.0377592 0.183311C0.00954145 0.237107 -0.00347096 0.297581 0.000123429 0.358221C0.00371782 0.418863 0.0237826 0.477375 0.0581578 0.52746L3.05816 4.86079C3.18249 5.04046 3.48182 5.04046 3.60649 4.86079L6.60649 0.527461C6.64122 0.47748 6.66158 0.418938 6.66537 0.358196C6.66916 0.297454 6.65623 0.236835 6.62799 0.182925C6.59974 0.129015 6.55727 0.0838766 6.50517 0.052413C6.45307 0.0209498 6.39335 0.00436542 6.33249 0.00446126Z" fill="black"/>
</svg>
