<svg width="12" height="12" viewBox="0 0 12 12" fill="none" xmlns="http://www.w3.org/2000/svg">
<path d="M10.3238 6.19875L6.94875 9.57375C6.89543 9.62343 6.82492 9.65048 6.75205 9.64919C6.67919 9.64791 6.60967 9.61839 6.55814 9.56686C6.50661 9.51533 6.4771 9.44581 6.47581 9.37295C6.47452 9.30009 6.50157 9.22957 6.55125 9.17625L9.44578 6.28125H1.875C1.80041 6.28125 1.72887 6.25162 1.67613 6.19888C1.62338 6.14613 1.59375 6.0746 1.59375 6C1.59375 5.92541 1.62338 5.85387 1.67613 5.80113C1.72887 5.74839 1.80041 5.71875 1.875 5.71875H9.44578L6.55125 2.82375C6.50157 2.77044 6.47452 2.69992 6.47581 2.62706C6.4771 2.55419 6.50661 2.48468 6.55814 2.43315C6.60967 2.38162 6.67919 2.3521 6.75205 2.35081C6.82492 2.34953 6.89543 2.37657 6.94875 2.42625L10.3238 5.80125C10.3764 5.85399 10.406 5.92547 10.406 6C10.406 6.07453 10.3764 6.14602 10.3238 6.19875Z" fill="#999999"/>
</svg>
