<svg width="32" height="32" viewBox="0 0 32 32" fill="none" xmlns="http://www.w3.org/2000/svg">
<mask id="mask0_7305_9532" style="mask-type:alpha" maskUnits="userSpaceOnUse" x="3" y="3" width="26" height="26">
<rect x="3.19922" y="3.20001" width="25.6" height="25.6" fill="#D9D9D9"/>
</mask>
<g mask="url(#mask0_7305_9532)">
</g>
<path d="M6.15467 25C5.54044 25 5.028 24.7937 4.61733 24.3812C4.20667 23.9687 4.00089 23.4536 4 22.8357V8.41429C4 7.79732 4.20578 7.28259 4.61733 6.87009C5.02889 6.45759 5.54089 6.25089 6.15333 6.25H25.8467C26.46 6.25 26.972 6.4567 27.3827 6.87009C27.7933 7.28348 27.9991 7.79821 28 8.41429V22.8371C28 23.4531 27.7942 23.9679 27.3827 24.3812C26.9711 24.7946 26.4591 25.0009 25.8467 25H6.15467ZM16 15.7804L5.33333 8.77455V22.8371C5.33333 23.0772 5.41022 23.2745 5.564 23.429C5.71778 23.5835 5.91467 23.6607 6.15467 23.6607H25.8467C26.0858 23.6607 26.2822 23.5835 26.436 23.429C26.5898 23.2745 26.6667 23.0768 26.6667 22.8357V8.77321L16 15.7804ZM16 14.2857L26.256 7.58929H5.744L16 14.2857ZM5.33333 8.77455V7.58929V22.8371C5.33333 23.0772 5.41022 23.2745 5.564 23.429C5.71778 23.5835 5.91467 23.6607 6.15467 23.6607H5.33333V8.77455Z" fill="#666666"/>
</svg>
