<svg width="20" height="20" viewBox="0 0 20 20" fill="none" xmlns="http://www.w3.org/2000/svg">
<g clip-path="url(#clip0_9502_2239)">
<mask id="mask0_9502_2239" style="mask-type:alpha" maskUnits="userSpaceOnUse" x="-1" y="-1" width="22" height="22">
<path d="M10.5 5.125H14.9H10.5ZM14.9 5.125V9.525V5.125ZM14.9 5.125L8.5 11.525L14.9 5.125Z" fill="#1A1A1A"/>
<path d="M10.5 5.125H14.9M14.9 5.125V9.525M14.9 5.125L8.5 11.525" stroke="black" stroke-width="1.5"/>
<mask id="path-3-inside-1_9502_2239" fill="white">
<path d="M8.8 5.60004H5.6C5.17565 5.60004 4.76869 5.76861 4.46863 6.06867C4.16857 6.36872 4 6.77569 4 7.20004V14.4C4 14.8244 4.16857 15.2313 4.46863 15.5314C4.76869 15.8315 5.17565 16 5.6 16H12.8C13.2243 16 13.6313 15.8315 13.9314 15.5314C14.2314 15.2313 14.4 14.8244 14.4 14.4V11.2"/>
</mask>
<path d="M8.8 7.10004C9.62843 7.10004 10.3 6.42846 10.3 5.60004C10.3 4.77161 9.62843 4.10004 8.8 4.10004V7.10004ZM5.6 5.60004V4.10004V5.60004ZM4 7.20004H2.5H4ZM4 14.4H2.5H4ZM15.9 11.2C15.9 10.3716 15.2284 9.70004 14.4 9.70004C13.5716 9.70004 12.9 10.3716 12.9 11.2H15.9ZM8.8 4.10004H5.6V7.10004H8.8V4.10004ZM5.6 4.10004C4.77783 4.10004 3.98933 4.42664 3.40797 5.00801L5.52929 7.12933C5.54804 7.11057 5.57348 7.10004 5.6 7.10004V4.10004ZM3.40797 5.00801C2.82661 5.58937 2.5 6.37787 2.5 7.20004H5.5C5.5 7.17351 5.51054 7.14808 5.52929 7.12933L3.40797 5.00801ZM2.5 7.20004V14.4H5.5V7.20004H2.5ZM2.5 14.4C2.5 15.2222 2.82661 16.0107 3.40797 16.5921L5.52929 14.4707C5.51054 14.452 5.5 14.4266 5.5 14.4H2.5ZM3.40797 16.5921C3.98933 17.1734 4.77783 17.5 5.6 17.5V14.5C5.57348 14.5 5.54804 14.4895 5.52929 14.4707L3.40797 16.5921ZM5.6 17.5H12.8V14.5H5.6V17.5ZM12.8 17.5C13.6222 17.5 14.4107 17.1734 14.992 16.5921L12.8707 14.4707C12.852 14.4895 12.8265 14.5 12.8 14.5V17.5ZM14.992 16.5921C15.5734 16.0107 15.9 15.2222 15.9 14.4H12.9C12.9 14.4266 12.8895 14.452 12.8707 14.4707L14.992 16.5921ZM15.9 14.4V11.2H12.9V14.4H15.9Z" fill="black" mask="url(#path-3-inside-1_9502_2239)"/>
</mask>
<g mask="url(#mask0_9502_2239)">
<rect x="4" y="4" width="12" height="12" fill="#1A1A1A"/>
</g>
</g>
<defs>
<clipPath id="clip0_9502_2239">
<rect width="12" height="12" fill="white" transform="translate(4 4)"/>
</clipPath>
</defs>
</svg>
