<svg width="65" height="64" viewBox="0 0 65 64" fill="none" xmlns="http://www.w3.org/2000/svg">
<g id="material-symbols-light:play-circle-outline" clip-path="url(#clip0_8960_14122)">
<path id="Vector" d="M25.2273 44.1962L44.6961 31.7092L25.2273 19.2222V44.1962ZM32.2195 63.1274C27.8769 63.1274 23.7925 62.3035 19.9665 60.6558C16.1427 59.0058 12.8159 56.7669 9.98595 53.9393C7.15598 51.1117 4.91599 47.7883 3.26595 43.9693C1.61591 40.1502 0.790894 36.067 0.790894 31.7197C0.790894 27.3723 1.61591 23.288 3.26595 19.4666C4.91366 15.6429 7.149 12.316 9.97198 9.48607C12.795 6.65611 16.1195 4.41611 19.9455 2.76607C23.7715 1.11603 27.8559 0.291016 32.1986 0.291016C36.5413 0.291016 40.6257 1.11603 44.4517 2.76607C48.2754 4.41378 51.6022 6.65029 54.4322 9.4756C57.2622 12.3009 59.5022 15.6254 61.1522 19.4491C62.8022 23.2728 63.6273 27.356 63.6273 31.6987C63.6273 36.0414 62.8034 40.1258 61.1557 43.9518C59.508 47.7779 57.2691 51.1047 54.4392 53.9323C51.6092 56.76 48.2859 59 44.4691 60.6523C40.6524 62.3047 36.5692 63.1297 32.2195 63.1274ZM32.2091 59.6365C40.0054 59.6365 46.6091 56.931 52.02 51.5201C57.4309 46.1092 60.1363 39.5056 60.1363 31.7092C60.1363 23.9128 57.4309 17.3092 52.02 11.8983C46.6091 6.48738 40.0054 3.78192 32.2091 3.78192C24.4127 3.78192 17.8091 6.48738 12.3982 11.8983C6.98726 17.3092 4.2818 23.9128 4.2818 31.7092C4.2818 39.5056 6.98726 46.1092 12.3982 51.5201C17.8091 56.931 24.4127 59.6365 32.2091 59.6365Z" fill="white"/>
</g>
<defs>
<clipPath id="clip0_8960_14122">
<rect width="64" height="64" fill="white" transform="translate(0.5)"/>
</clipPath>
</defs>
</svg>
