<svg width="32" height="32" viewBox="0 0 32 32" fill="none" xmlns="http://www.w3.org/2000/svg">
<mask id="mask0_9362_3101" style="mask-type:alpha" maskUnits="userSpaceOnUse" x="4" y="4" width="24" height="24">
<path d="M26.5 19.4076C26.5 19.533 26.4497 19.6533 26.3602 19.7419C26.2707 19.8306 26.1493 19.8804 26.0227 19.8804H22.6818V22.7174H25.0682C25.1948 22.7174 25.3162 22.7672 25.4057 22.8559C25.4952 22.9446 25.5455 23.0648 25.5455 23.1902C25.5455 23.3156 25.4952 23.4359 25.4057 23.5246C25.3162 23.6132 25.1948 23.663 25.0682 23.663H22.6818V26.0272C22.6818 26.1526 22.6315 26.2728 22.542 26.3615C22.4525 26.4502 22.3311 26.5 22.2045 26.5C22.078 26.5 21.9566 26.4502 21.8671 26.3615C21.7776 26.2728 21.7273 26.1526 21.7273 26.0272V19.4076C21.7273 19.2822 21.7776 19.1619 21.8671 19.0733C21.9566 18.9846 22.078 18.9348 22.2045 18.9348H26.0227C26.1493 18.9348 26.2707 18.9846 26.3602 19.0733C26.4497 19.1619 26.5 19.2822 26.5 19.4076ZM10.75 21.7717C10.75 22.5241 10.4483 23.2457 9.91126 23.7778C9.37422 24.3098 8.64585 24.6087 7.88636 24.6087H6.45455V26.0272C6.45455 26.1526 6.40426 26.2728 6.31476 26.3615C6.22525 26.4502 6.10385 26.5 5.97727 26.5C5.85069 26.5 5.7293 26.4502 5.63979 26.3615C5.55028 26.2728 5.5 26.1526 5.5 26.0272V19.4076C5.5 19.2822 5.55028 19.1619 5.63979 19.0733C5.7293 18.9846 5.85069 18.9348 5.97727 18.9348H7.88636C8.64585 18.9348 9.37422 19.2337 9.91126 19.7657C10.4483 20.2977 10.75 21.0193 10.75 21.7717ZM9.79545 21.7717C9.79545 21.2701 9.59432 20.7891 9.23629 20.4344C8.87827 20.0797 8.39269 19.8804 7.88636 19.8804H6.45455V23.663H7.88636C8.39269 23.663 8.87827 23.4638 9.23629 23.1091C9.59432 22.7544 9.79545 22.2733 9.79545 21.7717ZM19.3409 22.7174C19.3409 23.7206 18.9386 24.6827 18.2226 25.3921C17.5065 26.1015 16.5354 26.5 15.5227 26.5H13.6136C13.4871 26.5 13.3657 26.4502 13.2762 26.3615C13.1866 26.2728 13.1364 26.1526 13.1364 26.0272V19.4076C13.1364 19.2822 13.1866 19.1619 13.2762 19.0733C13.3657 18.9846 13.4871 18.9348 13.6136 18.9348H15.5227C16.5354 18.9348 17.5065 19.3333 18.2226 20.0427C18.9386 20.7521 19.3409 21.7142 19.3409 22.7174ZM18.3864 22.7174C18.3864 21.965 18.0847 21.2434 17.5476 20.7114C17.0106 20.1793 16.2822 19.8804 15.5227 19.8804H14.0909V25.5543H15.5227C16.2822 25.5543 17.0106 25.2555 17.5476 24.7234C18.0847 24.1914 18.3864 23.4698 18.3864 22.7174ZM5.5 14.6793V6.16848C5.5 5.79227 5.65085 5.43148 5.91937 5.16546C6.18789 4.89945 6.55208 4.75 6.93182 4.75H18.3864C18.4491 4.74995 18.5111 4.76214 18.5691 4.78587C18.627 4.8096 18.6797 4.84441 18.724 4.8883L25.4059 11.5079C25.4502 11.5518 25.4853 11.604 25.5092 11.6614C25.5332 11.7188 25.5455 11.7803 25.5455 11.8424V14.6793C25.5455 14.8047 25.4952 14.925 25.4057 15.0137C25.3162 15.1024 25.1948 15.1522 25.0682 15.1522C24.9416 15.1522 24.8202 15.1024 24.7307 15.0137C24.6412 14.925 24.5909 14.8047 24.5909 14.6793V12.3152H18.3864C18.2598 12.3152 18.1384 12.2654 18.0489 12.1767C17.9594 12.0881 17.9091 11.9678 17.9091 11.8424V5.69565H6.93182C6.80524 5.69565 6.68384 5.74547 6.59434 5.83414C6.50483 5.92281 6.45455 6.04308 6.45455 6.16848V14.6793C6.45455 14.8047 6.40426 14.925 6.31476 15.0137C6.22525 15.1024 6.10385 15.1522 5.97727 15.1522C5.85069 15.1522 5.7293 15.1024 5.63979 15.0137C5.55028 14.925 5.5 14.8047 5.5 14.6793ZM18.8636 11.3696H23.9156L18.8636 6.36352V11.3696Z" fill="black"/>
</mask>
<g mask="url(#mask0_9362_3101)">
<rect x="4" y="4" width="24" height="24" fill="#666666"/>
</g>
</svg>
