<svg width="24" height="24" viewBox="0 0 24 24" fill="none" xmlns="http://www.w3.org/2000/svg">
<g clip-path="url(#clip0_9417_729)">
<mask id="mask0_9417_729" style="mask-type:alpha" maskUnits="userSpaceOnUse" x="-10" y="-10" width="44" height="44">
<path d="M13 2.25H21.8M21.8 2.25V11.05M21.8 2.25L9 15.05" stroke="black" stroke-width="1.5"/>
<mask id="path-2-inside-1_9417_729" fill="white">
<path d="M9.6 3.19995H3.2C2.35131 3.19995 1.53737 3.53709 0.937258 4.13721C0.337142 4.73733 0 5.55126 0 6.39995V20.8C0 21.6486 0.337142 22.4626 0.937258 23.0627C1.53737 23.6628 2.35131 23.9999 3.2 23.9999H17.6C18.4487 23.9999 19.2626 23.6628 19.8627 23.0627C20.4629 22.4626 20.8 21.6486 20.8 20.8V14.4"/>
</mask>
<path d="M9.6 4.69995C10.4284 4.69995 11.1 4.02838 11.1 3.19995C11.1 2.37152 10.4284 1.69995 9.6 1.69995V4.69995ZM3.2 3.19995L3.2 1.69995L3.2 3.19995ZM0 6.39995H-1.5H0ZM0 20.8L-1.5 20.8L0 20.8ZM22.3 14.4C22.3 13.5715 21.6284 12.9 20.8 12.9C19.9716 12.9 19.3 13.5715 19.3 14.4H22.3ZM9.6 1.69995H3.2V4.69995H9.6V1.69995ZM3.2 1.69995C1.95348 1.69995 0.758019 2.19513 -0.123402 3.07655L1.99792 5.19787C2.31673 4.87906 2.74913 4.69995 3.2 4.69995L3.2 1.69995ZM-0.123402 3.07655C-1.00482 3.95797 -1.5 5.15343 -1.5 6.39995L1.5 6.39995C1.5 5.94908 1.67911 5.51668 1.99792 5.19787L-0.123402 3.07655ZM-1.5 6.39995V20.8H1.5V6.39995H-1.5ZM-1.5 20.8C-1.5 22.0465 -1.00482 23.2419 -0.123402 24.1234L1.99792 22.002C1.67911 21.6832 1.5 21.2508 1.5 20.8L-1.5 20.8ZM-0.123402 24.1234C0.758018 25.0048 1.95348 25.4999 3.2 25.4999V22.4999C2.74913 22.4999 2.31673 22.3208 1.99792 22.002L-0.123402 24.1234ZM3.2 25.4999H17.6V22.4999H3.2V25.4999ZM17.6 25.4999C18.8465 25.4999 20.042 25.0048 20.9234 24.1234L18.8021 22.002C18.4833 22.3208 18.0509 22.4999 17.6 22.4999V25.4999ZM20.9234 24.1234C21.8048 23.2419 22.3 22.0465 22.3 20.8H19.3C19.3 21.2508 19.1209 21.6832 18.8021 22.002L20.9234 24.1234ZM22.3 20.8V14.4H19.3V20.8H22.3Z" fill="black" mask="url(#path-2-inside-1_9417_729)"/>
</mask>
<g mask="url(#mask0_9417_729)">
<rect width="24" height="24" fill="#666666"/>
</g>
</g>
<defs>
<clipPath id="clip0_9417_729">
<rect width="24" height="24" fill="white"/>
</clipPath>
</defs>
</svg>
