<svg width="24" height="27" viewBox="0 0 24 27" fill="none" xmlns="http://www.w3.org/2000/svg">
<g clip-path="url(#clip0_9180_24199)">
<path d="M23.8513 2.58985C23.7272 2.68315 23.6528 2.73339 23.5846 2.792C22.9841 3.30992 22.3874 3.83262 21.7844 4.34695C20.1084 5.78229 18.477 7.26428 16.7587 8.65297C15.3432 9.79885 13.8966 10.91 12.4699 12.044C11.243 13.0212 9.86463 13.3382 8.32503 12.9422C5.52249 12.2246 4.26451 9.00344 5.88847 6.72244C6.32329 6.10657 6.91819 5.61154 7.61367 5.28685C8.30916 4.96216 9.08087 4.81918 9.85164 4.87222C10.6224 4.92526 11.3652 5.17245 12.0058 5.58908C12.6465 6.0057 13.1624 6.57717 13.5021 7.24634C13.6014 7.44131 13.6584 7.48556 13.8433 7.32528C14.9185 6.38035 16.0032 5.44299 17.0974 4.51321C17.2463 4.38523 17.2835 4.29432 17.1607 4.12088C15.559 1.86142 13.3967 0.427274 10.5445 0.167717C7.23205 -0.132509 4.39353 0.905721 2.2572 3.39723C0.0563538 5.96769 -0.511849 8.9233 0.731245 12.0248C2.18896 15.661 5.10937 17.5748 9.12275 17.8368C11.5581 17.9946 13.7453 17.2387 15.636 15.74C18.312 13.6252 20.9706 11.4949 23.6466 9.37662C23.7206 9.32514 23.78 9.25651 23.8192 9.17707C23.8584 9.09763 23.8763 9.00995 23.8711 8.9221C23.8711 6.9186 23.8711 4.9163 23.8711 2.91281C23.8662 2.82669 23.8587 2.74296 23.8513 2.58985Z" fill="#095534"/>
<path d="M2.91544 18.8522C2.18224 18.8522 1.4478 18.8522 0.714593 18.8522C0.511133 18.8522 0.450345 18.9156 0.514857 19.0998C0.568203 19.2505 0.60666 19.406 0.660006 19.5567C2.00855 23.3317 4.69944 25.6569 8.7885 26.3256C11.6953 26.804 14.3713 26.0863 16.6366 24.2527C19.8151 21.6679 20.9267 18.3475 20.1314 14.4206C20.0818 14.173 20.0272 14.1132 19.7989 14.301C18.5492 15.2986 17.2937 16.2886 16.0324 17.271C15.8162 17.4364 15.6676 17.6703 15.6131 17.9312C15.4473 18.6038 15.1457 19.2383 14.7255 19.7985C14.3053 20.3587 13.7747 20.8336 13.1641 21.196C12.5535 21.5585 11.8748 21.8014 11.1668 21.9109C10.4588 22.0204 9.73541 21.9943 9.03786 21.8342C7.40149 21.4657 6.1981 20.5053 5.41527 19.0687C5.3884 19.0005 5.33897 18.9426 5.27462 18.9042C5.21027 18.8657 5.13458 18.8487 5.05922 18.8558C4.34215 18.8582 3.62879 18.8522 2.91544 18.8522Z" fill="#095534"/>
<path d="M23.8521 2.58984C23.8596 2.73935 23.867 2.82906 23.8683 2.91279C23.8683 4.91629 23.8683 6.91859 23.8683 8.92208C23.8734 9.00993 23.8556 9.09762 23.8163 9.17706C23.7771 9.25649 23.7177 9.32512 23.6437 9.37661C20.9714 11.4949 18.3091 13.6252 15.6331 15.74C13.7424 17.2351 11.5552 17.9946 9.11988 17.8367C5.11022 17.5748 2.18982 15.661 0.732097 12.0284C-0.508515 8.92687 0.0572061 5.97126 2.25805 3.40081C4.39439 0.905707 7.2329 -0.132523 10.5453 0.171291C13.3987 0.430848 15.5599 1.86499 17.1615 4.12446C17.2856 4.29789 17.2471 4.3888 17.0983 4.51678C16.0073 5.44896 14.9226 6.38632 13.8441 7.32886C13.6593 7.49033 13.596 7.44847 13.503 7.24991C13.1633 6.58074 12.6473 6.00928 12.0067 5.59265C11.3661 5.17602 10.6233 4.92883 9.85249 4.87579C9.08172 4.82276 8.31001 4.96573 7.61453 5.29042C6.91904 5.61511 6.32415 6.11014 5.88932 6.72601C4.26536 9.0082 5.51714 12.2282 8.32588 12.9458C9.86548 13.3417 11.2438 13.0248 12.4708 12.0475C13.8975 10.9136 15.344 9.80243 16.7596 8.65655C18.4778 7.26785 20.1092 5.78586 21.7853 4.35052C22.3882 3.835 22.985 3.31229 23.5854 2.79557C23.6536 2.73337 23.7281 2.68314 23.8521 2.58984Z" fill="#095534"/>
<path d="M2.91668 18.8523C3.63004 18.8523 4.34339 18.8523 5.05674 18.8523C5.1321 18.8452 5.20779 18.8622 5.27214 18.9006C5.33649 18.9391 5.38592 18.9969 5.4128 19.0652C6.19562 20.5005 7.39777 21.4574 9.03538 21.8306C9.73293 21.9908 10.4564 22.0168 11.1644 21.9073C11.8724 21.7978 12.5511 21.5549 13.1617 21.1925C13.7723 20.8301 14.3028 20.3552 14.723 19.795C15.1432 19.2348 15.4448 18.6003 15.6106 17.9277C15.6651 17.6668 15.8137 17.4329 16.03 17.2674C17.2929 16.2882 18.5484 15.2982 19.7965 14.2975C20.0247 14.1145 20.0793 14.1779 20.1289 14.4171C20.9242 18.3439 19.8126 21.6644 16.6341 24.2492C14.3737 26.0876 11.6928 26.7957 8.78602 26.322C4.692 25.6558 2.00607 23.3317 0.657527 19.5532C0.604181 19.4025 0.565724 19.247 0.512377 19.0963C0.447866 18.9121 0.512376 18.8463 0.712114 18.8487C1.44904 18.8571 2.18348 18.8523 2.91668 18.8523Z" fill="#095534"/>
</g>
<defs>
<clipPath id="clip0_9180_24199">
<rect width="24" height="26.5892" fill="white"/>
</clipPath>
</defs>
</svg>
