<svg width="24" height="24" viewBox="0 0 24 24" fill="none" xmlns="http://www.w3.org/2000/svg">
<g clip-path="url(#clip0_9036_16002)">
<mask id="mask0_9036_16002" style="mask-type:alpha" maskUnits="userSpaceOnUse" x="4" y="4" width="16" height="16">
<path d="M18.0001 18L15.1048 15.1047M15.1048 15.1047C15.6001 14.6094 15.9929 14.0215 16.261 13.3744C16.529 12.7273 16.6669 12.0338 16.6669 11.3333C16.6669 10.6329 16.529 9.9394 16.261 9.29232C15.9929 8.64523 15.6001 8.05727 15.1048 7.56202C14.6095 7.06676 14.0216 6.6739 13.3745 6.40586C12.7274 6.13783 12.0339 5.99988 11.3335 5.99988C10.6331 5.99988 9.93953 6.13783 9.29244 6.40586C8.64535 6.6739 8.0574 7.06676 7.56214 7.56202C6.56192 8.56224 6 9.91882 6 11.3333C6 12.7479 6.56192 14.1045 7.56214 15.1047C8.56236 16.1049 9.91895 16.6668 11.3335 16.6668C12.748 16.6668 14.1046 16.1049 15.1048 15.1047Z" stroke="black" stroke-width="1.5" stroke-linecap="round" stroke-linejoin="round"/>
</mask>
<g mask="url(#mask0_9036_16002)">
<rect x="4" y="4" width="16" height="16" fill="#666666"/>
</g>
</g>
<defs>
<clipPath id="clip0_9036_16002">
<rect width="16" height="16" fill="white" transform="translate(4 4)"/>
</clipPath>
</defs>
</svg>
