<svg width="32" height="32" viewBox="0 0 32 32" fill="none" xmlns="http://www.w3.org/2000/svg">
<mask id="mask0_7305_9537" style="mask-type:alpha" maskUnits="userSpaceOnUse" x="3" y="3" width="26" height="26">
<rect x="3.19922" y="3.19995" width="25.6" height="25.6" fill="#D9D9D9"/>
</mask>
<g mask="url(#mask0_7305_9537)">
</g>
<path d="M25.5996 19.889L20.538 17.6207C20.3087 17.5225 20.0585 17.483 19.81 17.5058C19.5615 17.5286 19.3227 17.6131 19.1151 17.7515C19.0941 17.765 19.074 17.7801 19.0551 17.7965L16.4097 20.0465C16.3822 20.0615 16.3517 20.0699 16.3204 20.071C16.2892 20.0721 16.2581 20.0659 16.2297 20.053C14.5292 19.2322 12.7678 17.4814 11.9438 15.8046C11.9301 15.7766 11.9229 15.7458 11.9229 15.7146C11.9229 15.6834 11.9301 15.6526 11.9438 15.6246L14.2014 12.9459C14.2176 12.9261 14.2326 12.9054 14.2464 12.8838C14.3829 12.6754 14.4653 12.4363 14.4863 12.188C14.5072 11.9398 14.466 11.6903 14.3664 11.4619L12.1142 6.4089C11.9863 6.11061 11.7651 5.86185 11.4838 5.69996C11.2025 5.53806 10.8763 5.47176 10.5541 5.51101C9.15395 5.69508 7.86871 6.38269 6.93858 7.44533C6.00846 8.50797 5.49708 9.87294 5.50001 11.2851C5.50001 19.6747 12.3252 26.5 20.7148 26.5C22.127 26.5027 23.4918 25.9912 24.5544 25.0611C25.617 24.1311 26.3046 22.846 26.4889 21.4459C26.5281 21.1252 26.4627 20.8005 26.3025 20.52C26.1422 20.2395 25.8957 20.0182 25.5996 19.889ZM20.7148 25.2142C13.0346 25.2142 6.78577 18.9654 6.78577 11.2851C6.78219 10.1857 7.179 9.12265 7.90207 8.29448C8.62514 7.46631 9.625 6.92973 10.7148 6.78499H10.7395C10.7827 6.78579 10.8246 6.79962 10.8598 6.82467C10.8949 6.84972 10.9217 6.88481 10.9366 6.92535L13.1974 11.973C13.2103 12.0011 13.217 12.0316 13.217 12.0625C13.217 12.0934 13.2103 12.1239 13.1974 12.152L10.9356 14.8371C10.9188 14.8563 10.9034 14.8767 10.8895 14.8981C10.7479 15.1142 10.6646 15.3632 10.6475 15.6209C10.6304 15.8786 10.6802 16.1364 10.792 16.3693C11.7424 18.315 13.7031 20.2608 15.6704 21.2112C15.9046 21.3224 16.1636 21.3709 16.4222 21.3522C16.6808 21.3334 16.9301 21.2479 17.1458 21.1041C17.1661 21.0901 17.1865 21.0751 17.2058 21.0591L19.8501 18.809C19.8763 18.795 19.9051 18.7867 19.9347 18.7849C19.9643 18.783 19.9939 18.7876 20.0216 18.7983L25.0842 21.0666C25.1256 21.0842 25.1604 21.1144 25.1836 21.1528C25.2069 21.1913 25.2175 21.2361 25.2139 21.2809C25.0699 22.3712 24.5338 23.3718 23.7058 24.0957C22.8779 24.8196 21.8146 25.2172 20.7148 25.2142Z" fill="#666666"/>
</svg>
